<?xml version="1.0" encoding="UTF-8"?>
<svg xmlns="http://www.w3.org/2000/svg" viewBox="0 0 512 512" width="512" height="512">
  <defs>
    <linearGradient id="shell-bg" x1="0" y1="0" x2="1" y2="1">
      <stop offset="0%"   stop-color="#3d2817"/>
      <stop offset="100%" stop-color="#7a4e2b"/>
    </linearGradient>
    <linearGradient id="pic-bg" x1="0" y1="0" x2="0" y2="1">
      <stop offset="0%"   stop-color="#f4c896"/>
      <stop offset="100%" stop-color="#e9b584"/>
    </linearGradient>
    <linearGradient id="frame-body" x1="0" y1="0" x2="0" y2="1">
      <stop offset="0%"   stop-color="#faf5eb"/>
      <stop offset="100%" stop-color="#f0e4d0"/>
    </linearGradient>
  </defs>

  <rect x="0" y="0" width="512" height="512" rx="96" fill="url(#shell-bg)"/>

  <rect x="96" y="112" width="320" height="288" rx="20" fill="url(#frame-body)"/>

  <rect x="120" y="136" width="272" height="240" rx="8" fill="url(#pic-bg)"/>

  <circle cx="328" cy="200" r="28" fill="#fef3c7" fill-opacity="0.95"/>
  <path d="M 120 320 Q 200 260 280 300 Q 340 320 392 306 L 392 376 L 120 376 Z"
        fill="#8b5a3c" fill-opacity="0.7"/>
  <path d="M 120 350 Q 180 320 240 336 Q 320 360 392 344 L 392 376 L 120 376 Z"
        fill="#4a3423" fill-opacity="0.85"/>

  <rect x="236" y="400" width="40" height="12" rx="4" fill="#faf5eb" fill-opacity="0.9"/>
</svg>
